<svg xmlns="http://www.w3.org/2000/svg" viewBox="0 0 64 64" width="64" height="64">
  <rect x="4" y="4" width="56" height="56" rx="14" fill="#fffbeb" />
  <rect x="5.5" y="5.5" width="53" height="53" rx="12.5" fill="none" stroke="#fcd34d" stroke-width="3" />
  <path d="M32 16c-8 0-14 2-18 5v27c4-3 10-5 18-5s14 2 18 5V21c-4-3-10-5-18-5z" fill="#fff7d6" stroke="#92400e" stroke-width="2.5" />
  <path d="M32 16v27" stroke="#92400e" stroke-width="2.5" />
  <path d="M14 25c4-2 10-4 18-4M14 31c4-2 10-4 18-4M14 37c4-2 10-4 18-4" stroke="#d97706" stroke-width="2" stroke-linecap="round" />
  <path d="M50 25c-4-2-10-4-18-4M50 31c-4-2-10-4-18-4M50 37c-4-2-10-4-18-4" stroke="#d97706" stroke-width="2" stroke-linecap="round" />
</svg>